<svg xmlns="http://www.w3.org/2000/svg" xmlns:xlink="http://www.w3.org/1999/xlink" width="500" zoomAndPan="magnify" viewBox="0 0 375 374.999991" height="500" preserveAspectRatio="xMidYMid meet" version="1.0"><defs><g/><clipPath id="1d498a544b"><path d="M 283 210 L 303.011719 210 L 303.011719 245 L 283 245 Z M 283 210 " clip-rule="nonzero"/></clipPath><clipPath id="1e7da46ff0"><path d="M 251 143.753906 L 290 143.753906 L 290 232 L 251 232 Z M 251 143.753906 " clip-rule="nonzero"/></clipPath><clipPath id="ad6224e457"><path d="M 57.949219 152 L 255 152 L 255 239 L 57.949219 239 Z M 57.949219 152 " clip-rule="nonzero"/></clipPath></defs><rect x="-37.5" width="450" fill="#ffffff" y="-37.499999" height="449.999989" fill-opacity="1"/><rect x="-37.5" width="450" fill="#e590c4" y="-37.499999" height="449.999989" fill-opacity="1"/><g clip-path="url(#1d498a544b)"><path fill="#fbeee6" d="M 301.402344 221.738281 C 301.304688 221.53125 301.207031 221.304688 301.113281 221.097656 L 301.046875 220.9375 L 300.96875 220.773438 L 300.808594 220.453125 C 300.695312 220.246094 300.597656 220.019531 300.46875 219.8125 C 300.339844 219.601562 300.230469 219.394531 300.101562 219.199219 C 300.035156 219.105469 299.988281 218.992188 299.90625 218.894531 L 299.699219 218.589844 C 299.554688 218.398438 299.425781 218.1875 299.28125 217.980469 C 299.136719 217.789062 298.976562 217.59375 298.832031 217.402344 C 298.75 217.304688 298.671875 217.210938 298.589844 217.113281 L 298.332031 216.839844 C 297.660156 216.101562 296.90625 215.410156 296.054688 214.816406 C 294.351562 213.628906 292.328125 212.808594 290.160156 212.261719 C 288.136719 211.75 285.984375 211.429688 283.765625 211.089844 L 283.414062 210.03125 C 283.414062 210.03125 283.429688 210.03125 283.429688 210.03125 C 285.808594 210.449219 288.152344 210.800781 290.382812 211.410156 C 291.492188 211.71875 292.585938 212.085938 293.613281 212.535156 C 294.640625 212.984375 295.621094 213.546875 296.503906 214.191406 C 297.386719 214.832031 298.171875 215.570312 298.863281 216.359375 L 299.121094 216.664062 C 299.203125 216.761719 299.296875 216.855469 299.363281 216.96875 C 299.523438 217.175781 299.667969 217.386719 299.828125 217.59375 C 299.972656 217.804688 300.117188 218.027344 300.246094 218.238281 L 300.453125 218.558594 C 300.519531 218.671875 300.582031 218.785156 300.648438 218.878906 C 300.773438 219.105469 300.886719 219.3125 301.015625 219.539062 C 301.128906 219.761719 301.226562 219.972656 301.335938 220.195312 L 301.496094 220.519531 L 301.578125 220.679688 L 301.675781 220.839844 C 301.769531 221.0625 301.867188 221.289062 301.949219 221.515625 C 302.285156 222.414062 302.558594 223.3125 302.75 224.210938 C 303.121094 226.011719 303.199219 227.777344 303.023438 229.433594 C 302.878906 231.070312 302.492188 232.613281 301.996094 233.992188 C 301.480469 235.375 300.839844 236.59375 300.132812 237.671875 C 299.425781 238.730469 298.65625 239.644531 297.898438 240.417969 C 297.144531 241.1875 296.359375 241.796875 295.652344 242.3125 C 294.207031 243.324219 292.96875 243.886719 292.132812 244.207031 C 291.71875 244.382812 291.378906 244.480469 291.171875 244.5625 C 290.945312 244.640625 290.851562 244.671875 290.851562 244.671875 C 290.851562 244.671875 290.960938 244.640625 291.171875 244.5625 C 291.378906 244.480469 291.71875 244.382812 292.132812 244.191406 C 292.96875 243.839844 294.191406 243.261719 295.585938 242.214844 C 296.277344 241.6875 297.03125 241.058594 297.773438 240.289062 C 298.511719 239.519531 299.25 238.601562 299.90625 237.527344 C 300.582031 236.464844 301.191406 235.246094 301.660156 233.878906 C 302.125 232.515625 302.476562 231.023438 302.589844 229.398438 C 302.71875 227.792969 302.605469 226.074219 302.21875 224.339844 C 302.027344 223.457031 301.738281 222.605469 301.402344 221.738281 Z M 301.402344 221.738281 " fill-opacity="1" fill-rule="nonzero"/></g><g clip-path="url(#1e7da46ff0)"><path fill="#fbeee6" d="M 265.699219 195.945312 C 265.957031 195.238281 266.261719 194.5625 266.613281 193.90625 C 267.304688 192.589844 268.15625 191.367188 269.054688 190.195312 C 269.105469 190.132812 269.167969 190.050781 269.214844 189.988281 L 269.859375 191.464844 C 269.105469 192.460938 268.382812 193.488281 267.804688 194.546875 C 267.464844 195.140625 267.175781 195.769531 266.953125 196.394531 C 266.710938 197.019531 266.550781 197.664062 266.453125 198.289062 C 266.375 198.933594 266.355469 199.558594 266.453125 200.183594 C 266.550781 200.796875 266.757812 201.390625 267.03125 201.953125 C 267.320312 202.515625 267.691406 203.027344 268.109375 203.511719 C 268.542969 203.976562 268.992188 204.425781 269.503906 204.8125 C 270.515625 205.613281 271.625 206.273438 272.765625 206.851562 C 273.054688 206.996094 273.328125 207.140625 273.632812 207.269531 C 273.921875 207.398438 274.226562 207.542969 274.515625 207.667969 C 274.804688 207.78125 275.09375 207.910156 275.382812 208.023438 C 275.671875 208.136719 275.976562 208.230469 276.265625 208.34375 C 277.246094 208.679688 278.226562 208.953125 279.222656 209.179688 L 251.726562 150.925781 C 250.828125 149.03125 251.210938 146.800781 252.671875 145.289062 C 253.636719 144.3125 254.988281 143.765625 256.382812 143.796875 C 258.472656 143.859375 260.300781 145.210938 260.976562 147.183594 L 262.308594 151.070312 C 262.535156 150.945312 262.761719 150.832031 263 150.703125 C 263.128906 150.636719 263.242188 150.574219 263.371094 150.511719 C 264.1875 150.109375 265.023438 149.738281 265.890625 149.449219 C 266.757812 149.160156 267.640625 148.921875 268.542969 148.742188 C 269.441406 148.582031 270.355469 148.488281 271.273438 148.46875 C 271.496094 148.453125 271.738281 148.46875 271.980469 148.46875 C 272.21875 148.46875 272.460938 148.46875 272.652344 148.503906 L 273.296875 148.550781 C 273.34375 148.550781 273.457031 148.566406 273.488281 148.566406 L 273.664062 148.582031 L 274.003906 148.632812 C 274.902344 148.757812 275.785156 148.9375 276.652344 149.210938 C 277.519531 149.464844 278.355469 149.804688 279.171875 150.1875 C 279.976562 150.574219 280.761719 151.023438 281.488281 151.539062 C 284.410156 153.53125 286.675781 156.4375 287.863281 159.710938 C 288.167969 160.53125 288.390625 161.367188 288.570312 162.21875 C 288.664062 162.636719 288.714844 163.070312 288.777344 163.488281 C 288.824219 163.921875 288.875 164.339844 288.890625 164.773438 C 288.921875 165.1875 288.90625 165.640625 288.90625 166.074219 L 288.875 166.683594 L 288.859375 166.828125 C 288.859375 166.859375 288.859375 166.957031 288.84375 167.003906 L 288.792969 167.339844 C 288.679688 168.242188 288.425781 169.09375 288.101562 169.878906 C 287.78125 170.683594 287.378906 171.421875 286.964844 172.128906 C 286.53125 172.835938 286.078125 173.523438 285.582031 174.167969 C 284.617188 175.484375 283.574219 176.6875 282.515625 177.859375 C 280.394531 180.191406 278.195312 182.359375 276.089844 184.511719 C 275.703125 184.910156 275.320312 185.296875 274.933594 185.699219 C 274.742188 185.90625 274.53125 186.117188 274.339844 186.324219 L 289.757812 231.488281 L 279.785156 210.367188 C 278.5 210.109375 277.214844 209.789062 275.929688 209.371094 C 275.625 209.257812 275.304688 209.164062 274.996094 209.050781 C 274.691406 208.921875 274.386719 208.824219 274.066406 208.679688 C 273.777344 208.554688 273.472656 208.425781 273.167969 208.296875 C 272.863281 208.167969 272.558594 208.007812 272.269531 207.863281 C 271.0625 207.269531 269.875 206.59375 268.765625 205.726562 C 268.203125 205.308594 267.691406 204.8125 267.191406 204.296875 C 266.710938 203.75 266.277344 203.15625 265.921875 202.5 C 265.585938 201.839844 265.328125 201.117188 265.199219 200.363281 C 265.054688 199.605469 265.074219 198.835938 265.167969 198.082031 C 265.25 197.375 265.441406 196.652344 265.699219 195.945312 Z M 255.789062 147.667969 C 254.90625 148.019531 255.308594 151.105469 256.703125 154.523438 C 258.101562 157.960938 259.933594 160.453125 260.832031 160.082031 C 261.585938 159.777344 261.394531 157.464844 260.445312 154.636719 C 260.222656 154.796875 260.011719 154.941406 259.804688 155.101562 C 259.308594 155.457031 258.824219 155.84375 258.34375 156.210938 C 258.054688 155.648438 257.765625 155.023438 257.476562 154.316406 C 258.003906 153.914062 258.535156 153.53125 259.082031 153.144531 C 259.289062 153 259.515625 152.855469 259.722656 152.695312 C 258.328125 149.546875 256.625 147.328125 255.789062 147.667969 Z M 274.386719 184.109375 C 274.597656 183.898438 274.789062 183.675781 274.996094 183.464844 C 277.085938 181.28125 279.253906 179.097656 281.308594 176.800781 C 282.335938 175.644531 283.332031 174.457031 284.234375 173.21875 C 284.683594 172.59375 285.117188 171.949219 285.5 171.292969 C 285.886719 170.632812 286.242188 169.960938 286.511719 169.269531 C 286.785156 168.578125 286.996094 167.871094 287.074219 167.148438 L 287.109375 166.875 C 287.109375 166.828125 287.109375 166.8125 287.125 166.746094 L 287.125 166.601562 C 287.140625 166.394531 287.140625 166.203125 287.15625 165.992188 C 287.15625 165.621094 287.15625 165.253906 287.125 164.867188 C 287.109375 164.484375 287.058594 164.097656 287.027344 163.710938 C 286.964844 163.328125 286.914062 162.941406 286.835938 162.570312 C 286.675781 161.816406 286.464844 161.0625 286.175781 160.339844 C 285.082031 157.417969 283.042969 154.847656 280.394531 153.0625 C 277.761719 151.28125 274.53125 150.332031 271.304688 150.414062 C 270.5 150.429688 269.699219 150.527344 268.894531 150.671875 C 268.09375 150.832031 267.304688 151.039062 266.535156 151.3125 C 265.761719 151.585938 264.992188 151.921875 264.253906 152.292969 C 264.042969 152.390625 263.851562 152.5 263.644531 152.613281 C 263.417969 152.742188 263.195312 152.871094 262.96875 153 L 273.792969 184.71875 C 273.984375 184.527344 274.195312 184.316406 274.386719 184.109375 Z M 274.386719 184.109375 " fill-opacity="1" fill-rule="nonzero"/></g><g clip-path="url(#ad6224e457)"><path fill="#fbeee6" d="M 57.859375 199.976562 C 57.859375 193.792969 59.496094 187.433594 62.628906 181.667969 C 62.820312 181.296875 63.03125 180.960938 63.238281 180.589844 L 63.542969 180.0625 C 63.640625 179.886719 63.769531 179.707031 63.867188 179.53125 C 64.089844 179.179688 64.300781 178.824219 64.523438 178.488281 C 64.765625 178.148438 65.007812 177.796875 65.246094 177.460938 C 65.488281 177.105469 65.730469 176.800781 65.984375 176.464844 L 66.355469 175.980469 L 66.453125 175.855469 C 66.484375 175.820312 66.53125 175.742188 66.5625 175.726562 L 66.757812 175.484375 C 67.03125 175.164062 67.285156 174.84375 67.558594 174.519531 C 67.816406 174.199219 68.105469 173.894531 68.394531 173.574219 C 70.628906 171.050781 73.179688 168.785156 75.925781 166.730469 C 77.324219 165.71875 78.738281 164.753906 80.230469 163.855469 C 81.726562 162.972656 83.25 162.121094 84.824219 161.367188 L 85.417969 161.078125 L 86.011719 160.804688 C 86.414062 160.628906 86.816406 160.433594 87.203125 160.257812 C 88.003906 159.921875 88.808594 159.550781 89.625 159.246094 C 91.265625 158.589844 92.917969 157.996094 94.605469 157.449219 C 101.351562 155.265625 108.449219 153.898438 115.675781 153.0625 C 116.578125 152.96875 117.492188 152.855469 118.390625 152.773438 L 119.066406 152.710938 L 119.402344 152.679688 L 119.757812 152.644531 C 120.207031 152.613281 120.671875 152.582031 121.121094 152.550781 C 122.035156 152.484375 122.953125 152.421875 123.867188 152.355469 C 124.785156 152.308594 125.699219 152.308594 126.628906 152.277344 C 128.476562 152.195312 130.324219 152.261719 132.171875 152.292969 L 132.863281 152.308594 L 133.550781 152.355469 L 136.347656 152.519531 L 137.039062 152.566406 C 137.261719 152.582031 137.503906 152.613281 137.726562 152.628906 C 138.660156 152.726562 139.574219 152.824219 140.507812 152.917969 L 141.199219 153 C 141.421875 153.03125 141.664062 153.0625 141.886719 153.097656 L 143.269531 153.304688 L 144.648438 153.511719 L 145.339844 153.609375 L 146.03125 153.738281 C 146.945312 153.914062 147.863281 154.089844 148.792969 154.269531 C 149.257812 154.347656 149.710938 154.460938 150.175781 154.558594 L 151.539062 154.878906 C 152.457031 155.085938 153.371094 155.28125 154.269531 155.535156 C 155.171875 155.777344 156.085938 156.019531 156.984375 156.257812 C 157.882812 156.515625 158.785156 156.804688 159.683594 157.0625 L 161.03125 157.464844 L 162.363281 157.914062 C 163.25 158.21875 164.148438 158.507812 165.03125 158.8125 L 167.679688 159.777344 L 169 160.257812 L 170.316406 160.773438 L 172.933594 161.785156 L 175.535156 162.84375 L 176.835938 163.375 L 178.136719 163.921875 L 180.722656 165.011719 L 183.292969 166.136719 C 184.144531 166.507812 185.011719 166.890625 185.84375 167.246094 C 187.53125 167.96875 189.265625 168.59375 191 169.171875 C 194.503906 170.296875 198.066406 171.164062 201.699219 171.679688 C 208.941406 172.769531 216.328125 172.609375 223.460938 171.355469 C 230.574219 170.054688 237.449219 167.648438 243.648438 164.210938 L 244.804688 163.566406 L 245.929688 162.894531 L 246.492188 162.554688 C 246.683594 162.441406 246.859375 162.316406 247.050781 162.203125 L 248.175781 161.480469 C 249.621094 160.53125 251.019531 159.457031 252.402344 158.363281 C 252.867188 157.996094 253.316406 157.625 253.78125 157.253906 L 254.699219 159.183594 C 254.375 159.457031 254.039062 159.710938 253.703125 159.984375 C 252.304688 161.109375 250.875 162.21875 249.332031 163.246094 L 248.207031 163.984375 C 248.015625 164.113281 247.839844 164.226562 247.648438 164.355469 L 247.050781 164.707031 L 245.863281 165.429688 L 244.660156 166.105469 C 241.464844 167.902344 238.089844 169.414062 234.605469 170.667969 C 234.171875 170.828125 233.738281 170.972656 233.289062 171.117188 C 232.855469 171.261719 232.40625 171.40625 231.972656 171.550781 C 231.070312 171.804688 230.1875 172.09375 229.289062 172.320312 L 227.941406 172.671875 L 226.574219 172.996094 L 225.902344 173.15625 L 225.210938 173.285156 L 223.828125 173.558594 C 216.472656 174.875 208.828125 175.050781 201.34375 173.925781 C 197.601562 173.394531 193.890625 172.496094 190.277344 171.339844 C 188.480469 170.746094 186.679688 170.105469 184.929688 169.347656 C 184.046875 168.980469 183.195312 168.609375 182.34375 168.242188 L 179.773438 167.132812 L 177.203125 166.039062 L 175.921875 165.496094 L 174.636719 164.964844 L 172.050781 163.90625 L 169.449219 162.894531 L 168.148438 162.394531 L 166.847656 161.914062 L 164.226562 160.964844 C 163.34375 160.675781 162.476562 160.371094 161.59375 160.082031 L 160.277344 159.648438 L 158.960938 159.246094 C 158.078125 158.972656 157.195312 158.699219 156.308594 158.445312 C 155.425781 158.203125 154.527344 157.960938 153.644531 157.722656 C 152.761719 157.464844 151.863281 157.273438 150.960938 157.0625 L 149.613281 156.757812 C 149.164062 156.660156 148.714844 156.546875 148.265625 156.46875 C 147.363281 156.292969 146.464844 156.132812 145.566406 155.953125 L 144.890625 155.824219 L 144.214844 155.730469 L 142.867188 155.519531 L 141.519531 155.3125 C 141.292969 155.28125 141.070312 155.246094 140.84375 155.214844 L 140.167969 155.136719 C 139.269531 155.039062 138.355469 154.941406 137.457031 154.847656 C 137.230469 154.832031 137.003906 154.796875 136.78125 154.78125 L 136.105469 154.734375 L 134.742188 154.652344 L 133.375 154.574219 L 132.703125 154.523438 L 132.027344 154.507812 C 130.210938 154.476562 128.414062 154.414062 126.597656 154.476562 C 125.699219 154.492188 124.800781 154.507812 123.898438 154.542969 C 123 154.605469 122.101562 154.652344 121.203125 154.71875 C 119.417969 154.8125 117.605469 155.007812 115.835938 155.183594 C 108.722656 155.96875 101.753906 157.273438 95.152344 159.375 C 93.496094 159.90625 91.875 160.46875 90.285156 161.09375 C 89.480469 161.398438 88.695312 161.738281 87.910156 162.074219 C 87.523438 162.25 87.136719 162.425781 86.753906 162.605469 L 86.171875 162.859375 L 85.59375 163.132812 C 82.542969 164.609375 79.652344 166.328125 76.953125 168.257812 C 74.289062 170.214844 71.816406 172.382812 69.648438 174.777344 C 69.375 175.082031 69.101562 175.371094 68.84375 175.675781 C 68.585938 175.980469 68.332031 176.289062 68.074219 176.609375 L 67.878906 176.832031 C 67.832031 176.882812 67.832031 176.898438 67.800781 176.929688 L 67.703125 177.058594 L 67.335938 177.539062 C 67.09375 177.859375 66.820312 178.183594 66.613281 178.503906 C 66.386719 178.824219 66.164062 179.144531 65.9375 179.46875 C 65.710938 179.789062 65.503906 180.125 65.296875 180.464844 C 65.183594 180.625 65.070312 180.800781 64.972656 180.960938 L 64.667969 181.476562 C 64.476562 181.8125 64.265625 182.148438 64.074219 182.503906 C 61.023438 188.011719 59.417969 194.097656 59.335938 200.007812 L 59.320312 200.554688 C 59.320312 200.730469 59.335938 200.925781 59.335938 201.101562 C 59.351562 201.46875 59.351562 201.839844 59.367188 202.210938 C 59.402344 202.578125 59.433594 202.933594 59.449219 203.300781 C 59.464844 203.476562 59.480469 203.671875 59.496094 203.847656 L 59.5625 204.394531 C 59.722656 205.839844 60.027344 207.253906 60.378906 208.617188 C 60.476562 208.953125 60.574219 209.308594 60.667969 209.644531 C 60.71875 209.820312 60.765625 209.980469 60.832031 210.144531 L 61.007812 210.640625 C 61.214844 211.316406 61.503906 211.957031 61.761719 212.601562 C 62.339844 213.867188 62.949219 215.121094 63.6875 216.261719 C 64.394531 217.433594 65.230469 218.511719 66.066406 219.554688 C 66.289062 219.8125 66.515625 220.050781 66.742188 220.308594 C 66.964844 220.550781 67.175781 220.808594 67.414062 221.046875 C 67.898438 221.515625 68.347656 221.996094 68.84375 222.414062 C 69.085938 222.636719 69.34375 222.847656 69.582031 223.070312 L 69.664062 223.152344 L 69.761719 223.230469 L 69.953125 223.394531 L 70.339844 223.699219 C 70.59375 223.90625 70.851562 224.117188 71.109375 224.324219 C 71.367188 224.515625 71.621094 224.710938 71.878906 224.902344 C 72.136719 225.09375 72.394531 225.289062 72.652344 225.480469 C 72.90625 225.65625 73.179688 225.851562 73.4375 226.027344 C 73.695312 226.203125 73.953125 226.394531 74.226562 226.574219 C 74.496094 226.75 74.753906 226.910156 75.027344 227.085938 C 77.164062 228.453125 79.316406 229.65625 81.484375 230.714844 C 82.03125 230.972656 82.558594 231.246094 83.089844 231.488281 C 83.636719 231.726562 84.167969 231.96875 84.695312 232.210938 C 85.773438 232.660156 86.832031 233.109375 87.890625 233.496094 C 90.011719 234.296875 92.101562 234.988281 94.140625 235.550781 C 94.398438 235.613281 94.652344 235.695312 94.894531 235.757812 C 95.152344 235.824219 95.410156 235.886719 95.648438 235.953125 C 96.148438 236.082031 96.644531 236.210938 97.144531 236.320312 C 98.140625 236.546875 99.117188 236.769531 100.082031 236.933594 C 101.046875 237.125 101.992188 237.269531 102.925781 237.398438 C 103.148438 237.429688 103.390625 237.460938 103.617188 237.492188 C 103.839844 237.527344 104.082031 237.542969 104.304688 237.574219 C 104.757812 237.621094 105.222656 237.6875 105.65625 237.71875 C 106.554688 237.78125 107.421875 237.878906 108.289062 237.894531 C 108.722656 237.910156 109.140625 237.925781 109.558594 237.945312 C 109.976562 237.945312 110.394531 237.945312 110.792969 237.945312 C 114.054688 237.945312 116.960938 237.621094 119.433594 237.109375 C 121.910156 236.59375 123.964844 235.886719 125.570312 235.230469 C 125.972656 235.054688 126.339844 234.890625 126.695312 234.730469 C 126.773438 234.699219 126.871094 234.652344 126.953125 234.621094 C 127.03125 234.570312 127.113281 234.539062 127.191406 234.492188 C 127.351562 234.410156 127.496094 234.332031 127.660156 234.25 C 127.949219 234.089844 128.21875 233.945312 128.476562 233.816406 C 128.605469 233.75 128.71875 233.6875 128.832031 233.625 C 128.941406 233.558594 129.039062 233.496094 129.136719 233.429688 C 129.90625 232.949219 130.308594 232.707031 130.308594 232.707031 C 130.308594 232.707031 129.921875 232.964844 129.152344 233.460938 C 129.054688 233.527344 128.960938 233.589844 128.847656 233.65625 C 128.734375 233.734375 128.621094 233.800781 128.507812 233.863281 C 128.269531 234.007812 127.996094 234.152344 127.707031 234.3125 C 127.5625 234.394531 127.402344 234.476562 127.257812 234.570312 C 127.175781 234.621094 127.097656 234.667969 127.015625 234.699219 C 126.933594 234.730469 126.839844 234.78125 126.757812 234.828125 C 126.40625 234.988281 126.035156 235.164062 125.632812 235.359375 C 124.027344 236.066406 121.988281 236.820312 119.5 237.398438 C 117.011719 237.976562 114.085938 238.359375 110.8125 238.425781 C 110.394531 238.425781 109.992188 238.441406 109.558594 238.441406 C 109.140625 238.425781 108.707031 238.425781 108.273438 238.410156 C 107.40625 238.410156 106.523438 238.328125 105.625 238.28125 C 105.171875 238.265625 104.707031 238.199219 104.257812 238.152344 C 104.03125 238.136719 103.792969 238.105469 103.566406 238.089844 C 103.328125 238.070312 103.101562 238.039062 102.859375 238.007812 C 101.914062 237.878906 100.949219 237.765625 99.984375 237.589844 C 99.007812 237.445312 98.011719 237.222656 97.015625 237.027344 C 96.515625 236.933594 96.003906 236.789062 95.488281 236.675781 C 95.230469 236.609375 94.976562 236.546875 94.71875 236.5 C 94.460938 236.433594 94.203125 236.371094 93.945312 236.289062 C 91.875 235.757812 89.753906 235.085938 87.601562 234.3125 C 86.527344 233.929688 85.433594 233.496094 84.34375 233.0625 C 83.796875 232.820312 83.25 232.59375 82.703125 232.355469 C 82.160156 232.113281 81.613281 231.855469 81.050781 231.601562 C 78.851562 230.554688 76.632812 229.367188 74.433594 228.019531 C 74.160156 227.839844 73.886719 227.679688 73.613281 227.503906 C 73.339844 227.328125 73.070312 227.152344 72.796875 226.957031 C 72.523438 226.78125 72.25 226.589844 71.976562 226.414062 C 71.703125 226.234375 71.445312 226.027344 71.171875 225.835938 C 70.898438 225.640625 70.628906 225.449219 70.371094 225.238281 C 70.113281 225.03125 69.855469 224.839844 69.582031 224.628906 L 69.199219 224.324219 L 69.003906 224.164062 L 68.910156 224.082031 C 68.859375 224.035156 68.84375 224.019531 68.796875 223.988281 C 68.539062 223.761719 68.28125 223.539062 68.023438 223.3125 C 67.496094 222.878906 67.011719 222.382812 66.515625 221.898438 C 66.257812 221.660156 66.035156 221.402344 65.792969 221.144531 C 65.550781 220.886719 65.328125 220.628906 65.085938 220.375 C 64.1875 219.296875 63.304688 218.1875 62.546875 216.96875 C 61.761719 215.765625 61.085938 214.480469 60.476562 213.144531 C 60.1875 212.472656 59.882812 211.796875 59.65625 211.105469 L 59.464844 210.578125 C 59.402344 210.398438 59.335938 210.222656 59.289062 210.046875 C 59.175781 209.691406 59.078125 209.339844 58.96875 208.96875 C 58.582031 207.523438 58.246094 206.0625 58.050781 204.554688 L 57.972656 203.992188 C 57.957031 203.800781 57.9375 203.605469 57.921875 203.429688 C 57.890625 203.042969 57.859375 202.675781 57.828125 202.289062 C 57.8125 201.902344 57.792969 201.519531 57.777344 201.132812 C 57.777344 200.941406 57.761719 200.746094 57.761719 200.554688 Z M 57.859375 199.976562 " fill-opacity="1" fill-rule="nonzero"/></g><g fill="#ffffff" fill-opacity="1"><g transform="translate(108.890622, 230.022172)"><g><path d="M 3.578125 0 L 3.578125 -45.625 L 9.078125 -45.625 L 9.078125 -15.1875 L 9.953125 -15.1875 L 24.6875 -27.578125 L 26 -27.578125 L 14.390625 -17.890625 L 29.140625 0 L 21.984375 0 L 10.203125 -14.3125 L 9.078125 -14.3125 L 9.078125 0 Z M 3.578125 0 "/></g></g></g><g fill="#ffffff" fill-opacity="1"><g transform="translate(138.903312, 230.022172)"><g><path d="M 16.84375 0.703125 C 12.414062 0.640625 8.863281 -0.726562 6.1875 -3.40625 C 3.519531 -6.082031 2.1875 -9.570312 2.1875 -13.875 C 2.1875 -16.71875 2.867188 -19.226562 4.234375 -21.40625 C 5.597656 -23.59375 7.398438 -25.3125 9.640625 -26.5625 C 11.878906 -27.8125 14.28125 -28.4375 16.84375 -28.4375 C 19.394531 -28.4375 21.773438 -27.8125 23.984375 -26.5625 C 26.203125 -25.3125 27.992188 -23.59375 29.359375 -21.40625 C 30.722656 -19.226562 31.40625 -16.71875 31.40625 -13.875 C 31.40625 -9.570312 30.082031 -6.082031 27.4375 -3.40625 C 24.789062 -0.726562 21.257812 0.640625 16.84375 0.703125 Z M 16.84375 -0.171875 C 19.394531 -0.171875 21.398438 -1.1875 22.859375 -3.21875 C 24.316406 -5.257812 25.046875 -8.925781 25.046875 -14.21875 C 25.046875 -17.707031 24.695312 -20.410156 24 -22.328125 C 23.300781 -24.253906 22.335938 -25.609375 21.109375 -26.390625 C 19.890625 -27.179688 18.46875 -27.578125 16.84375 -27.578125 C 15.207031 -27.578125 13.765625 -27.179688 12.515625 -26.390625 C 11.265625 -25.609375 10.289062 -24.253906 9.59375 -22.328125 C 8.894531 -20.410156 8.546875 -17.707031 8.546875 -14.21875 C 8.546875 -11.539062 8.765625 -9.15625 9.203125 -7.0625 C 9.640625 -4.96875 10.453125 -3.296875 11.640625 -2.046875 C 12.835938 -0.796875 14.570312 -0.171875 16.84375 -0.171875 Z M 16.84375 -0.171875 "/></g></g></g><g fill="#ffffff" fill-opacity="1"><g transform="translate(172.493092, 230.022172)"><g><path d="M 3.578125 0 L 3.578125 -45.625 L 9.078125 -45.625 L 9.078125 -15.1875 L 9.953125 -15.1875 L 24.6875 -27.578125 L 26 -27.578125 L 14.390625 -17.890625 L 29.140625 0 L 21.984375 0 L 10.203125 -14.3125 L 9.078125 -14.3125 L 9.078125 0 Z M 3.578125 0 "/></g></g></g><g fill="#ffffff" fill-opacity="1"><g transform="translate(202.505782, 230.022172)"><g><path d="M 3.578125 0 L 3.578125 -45.625 L 9.078125 -45.625 L 9.078125 -15.1875 L 9.953125 -15.1875 L 24.6875 -27.578125 L 26 -27.578125 L 14.390625 -17.890625 L 29.140625 0 L 21.984375 0 L 10.203125 -14.3125 L 9.078125 -14.3125 L 9.078125 0 Z M 3.578125 0 "/></g></g></g><g fill="#ffffff" fill-opacity="1"><g transform="translate(232.518471, 230.022172)"><g><path d="M 16.84375 0.703125 C 12.414062 0.640625 8.863281 -0.726562 6.1875 -3.40625 C 3.519531 -6.082031 2.1875 -9.570312 2.1875 -13.875 C 2.1875 -16.71875 2.867188 -19.226562 4.234375 -21.40625 C 5.597656 -23.59375 7.398438 -25.3125 9.640625 -26.5625 C 11.878906 -27.8125 14.28125 -28.4375 16.84375 -28.4375 C 19.394531 -28.4375 21.773438 -27.8125 23.984375 -26.5625 C 26.203125 -25.3125 27.992188 -23.59375 29.359375 -21.40625 C 30.722656 -19.226562 31.40625 -16.71875 31.40625 -13.875 C 31.40625 -9.570312 30.082031 -6.082031 27.4375 -3.40625 C 24.789062 -0.726562 21.257812 0.640625 16.84375 0.703125 Z M 16.84375 -0.171875 C 19.394531 -0.171875 21.398438 -1.1875 22.859375 -3.21875 C 24.316406 -5.257812 25.046875 -8.925781 25.046875 -14.21875 C 25.046875 -17.707031 24.695312 -20.410156 24 -22.328125 C 23.300781 -24.253906 22.335938 -25.609375 21.109375 -26.390625 C 19.890625 -27.179688 18.46875 -27.578125 16.84375 -27.578125 C 15.207031 -27.578125 13.765625 -27.179688 12.515625 -26.390625 C 11.265625 -25.609375 10.289062 -24.253906 9.59375 -22.328125 C 8.894531 -20.410156 8.546875 -17.707031 8.546875 -14.21875 C 8.546875 -11.539062 8.765625 -9.15625 9.203125 -7.0625 C 9.640625 -4.96875 10.453125 -3.296875 11.640625 -2.046875 C 12.835938 -0.796875 14.570312 -0.171875 16.84375 -0.171875 Z M 16.84375 -0.171875 "/></g></g></g></svg>