<svg xmlns="http://www.w3.org/2000/svg" xmlns:xlink="http://www.w3.org/1999/xlink" width="500" zoomAndPan="magnify" viewBox="0 0 375 374.999991" height="500" preserveAspectRatio="xMidYMid meet" version="1.0"><defs><g/><clipPath id="bfe96b5d76"><path d="M 276 195 L 296.5625 195 L 296.5625 230.484375 L 276 230.484375 Z M 276 195 " clip-rule="nonzero"/></clipPath><clipPath id="fe23d91459"><path d="M 244 129.234375 L 284 129.234375 L 284 217 L 244 217 Z M 244 129.234375 " clip-rule="nonzero"/></clipPath><clipPath id="9a8ccb7ab9"><path d="M 51.5 137 L 249 137 L 249 224 L 51.5 224 Z M 51.5 137 " clip-rule="nonzero"/></clipPath></defs><rect x="-37.5" width="450" fill="#ffffff" y="-37.499999" height="449.999989" fill-opacity="1"/><rect x="-37.5" width="450" fill="#ffffff" y="-37.499999" height="449.999989" fill-opacity="1"/><g clip-path="url(#bfe96b5d76)"><path fill="#e590c4" d="M 294.949219 207.222656 C 294.851562 207.015625 294.757812 206.789062 294.660156 206.582031 L 294.597656 206.417969 L 294.515625 206.257812 L 294.355469 205.9375 C 294.242188 205.730469 294.148438 205.503906 294.019531 205.296875 C 293.890625 205.085938 293.777344 204.878906 293.648438 204.683594 C 293.585938 204.589844 293.535156 204.476562 293.457031 204.378906 L 293.246094 204.074219 C 293.101562 203.882812 292.972656 203.671875 292.828125 203.464844 C 292.683594 203.273438 292.523438 203.078125 292.378906 202.886719 C 292.300781 202.789062 292.21875 202.695312 292.140625 202.597656 L 291.882812 202.324219 C 291.207031 201.585938 290.453125 200.894531 289.601562 200.300781 C 287.898438 199.113281 285.875 198.292969 283.707031 197.746094 C 281.683594 197.234375 279.53125 196.910156 277.316406 196.574219 L 276.960938 195.515625 C 276.960938 195.515625 276.976562 195.515625 276.976562 195.515625 C 279.355469 195.933594 281.699219 196.285156 283.933594 196.894531 C 285.039062 197.199219 286.132812 197.570312 287.160156 198.019531 C 288.1875 198.46875 289.167969 199.03125 290.050781 199.675781 C 290.933594 200.316406 291.722656 201.054688 292.414062 201.84375 L 292.667969 202.148438 C 292.75 202.242188 292.847656 202.339844 292.910156 202.453125 C 293.070312 202.660156 293.214844 202.871094 293.375 203.078125 C 293.519531 203.289062 293.664062 203.511719 293.792969 203.722656 L 294.003906 204.042969 C 294.066406 204.15625 294.128906 204.265625 294.195312 204.363281 C 294.324219 204.589844 294.4375 204.796875 294.5625 205.023438 C 294.675781 205.246094 294.773438 205.457031 294.886719 205.679688 L 295.046875 206 L 295.125 206.164062 L 295.222656 206.324219 C 295.320312 206.546875 295.414062 206.773438 295.496094 206.996094 C 295.832031 207.898438 296.105469 208.796875 296.300781 209.695312 C 296.667969 211.496094 296.75 213.261719 296.570312 214.914062 C 296.425781 216.554688 296.042969 218.09375 295.542969 219.476562 C 295.03125 220.859375 294.386719 222.078125 293.679688 223.15625 C 292.972656 224.214844 292.203125 225.128906 291.449219 225.902344 C 290.695312 226.671875 289.90625 227.28125 289.199219 227.796875 C 287.753906 228.808594 286.519531 229.371094 285.683594 229.691406 C 285.265625 229.867188 284.929688 229.964844 284.71875 230.042969 C 284.496094 230.125 284.398438 230.15625 284.398438 230.15625 C 284.398438 230.15625 284.511719 230.125 284.71875 230.042969 C 284.929688 229.964844 285.265625 229.867188 285.683594 229.675781 C 286.519531 229.320312 287.738281 228.742188 289.136719 227.699219 C 289.828125 227.167969 290.582031 226.542969 291.320312 225.773438 C 292.058594 225 292.796875 224.085938 293.457031 223.011719 C 294.128906 221.949219 294.742188 220.730469 295.207031 219.363281 C 295.671875 218 296.027344 216.503906 296.136719 214.882812 C 296.265625 213.277344 296.15625 211.558594 295.769531 209.824219 C 295.578125 208.941406 295.289062 208.089844 294.949219 207.222656 Z M 294.949219 207.222656 " fill-opacity="1" fill-rule="nonzero"/></g><g clip-path="url(#fe23d91459)"><path fill="#e590c4" d="M 259.246094 181.429688 C 259.503906 180.722656 259.808594 180.046875 260.164062 179.390625 C 260.851562 178.074219 261.703125 176.851562 262.605469 175.679688 C 262.652344 175.617188 262.714844 175.535156 262.765625 175.472656 L 263.40625 176.949219 C 262.652344 177.945312 261.929688 178.972656 261.351562 180.03125 C 261.015625 180.625 260.726562 181.253906 260.5 181.878906 C 260.257812 182.503906 260.097656 183.148438 260.003906 183.773438 C 259.921875 184.417969 259.90625 185.042969 260.003906 185.667969 C 260.097656 186.28125 260.308594 186.875 260.582031 187.4375 C 260.871094 187.996094 261.238281 188.511719 261.65625 188.992188 C 262.089844 189.460938 262.539062 189.910156 263.054688 190.292969 C 264.066406 191.097656 265.171875 191.757812 266.3125 192.335938 C 266.601562 192.480469 266.875 192.625 267.179688 192.75 C 267.46875 192.878906 267.773438 193.023438 268.066406 193.152344 C 268.355469 193.265625 268.644531 193.394531 268.933594 193.507812 C 269.222656 193.621094 269.527344 193.714844 269.816406 193.828125 C 270.792969 194.164062 271.773438 194.4375 272.769531 194.664062 L 245.273438 136.410156 C 244.375 134.515625 244.761719 132.285156 246.222656 130.773438 C 247.1875 129.792969 248.535156 129.25 249.933594 129.28125 C 252.019531 129.34375 253.851562 130.695312 254.527344 132.667969 L 255.859375 136.554688 C 256.082031 136.425781 256.308594 136.316406 256.550781 136.1875 C 256.675781 136.121094 256.789062 136.058594 256.917969 135.992188 C 257.738281 135.59375 258.574219 135.222656 259.441406 134.933594 C 260.308594 134.644531 261.191406 134.402344 262.089844 134.226562 C 262.988281 134.066406 263.90625 133.96875 264.820312 133.953125 C 265.046875 133.9375 265.285156 133.953125 265.527344 133.953125 C 265.769531 133.953125 266.007812 133.953125 266.203125 133.988281 L 266.84375 134.035156 C 266.890625 134.035156 267.003906 134.050781 267.035156 134.050781 L 267.214844 134.066406 L 267.550781 134.113281 C 268.449219 134.242188 269.332031 134.421875 270.199219 134.691406 C 271.066406 134.949219 271.902344 135.289062 272.722656 135.671875 C 273.523438 136.058594 274.3125 136.507812 275.035156 137.023438 C 277.957031 139.011719 280.222656 141.921875 281.410156 145.195312 C 281.714844 146.015625 281.941406 146.851562 282.117188 147.703125 C 282.214844 148.121094 282.261719 148.554688 282.328125 148.972656 C 282.375 149.40625 282.421875 149.820312 282.4375 150.253906 C 282.472656 150.671875 282.453125 151.121094 282.453125 151.554688 L 282.421875 152.167969 L 282.40625 152.3125 C 282.40625 152.34375 282.40625 152.441406 282.390625 152.488281 L 282.34375 152.824219 C 282.230469 153.726562 281.972656 154.574219 281.652344 155.363281 C 281.332031 156.164062 280.929688 156.90625 280.511719 157.613281 C 280.078125 158.316406 279.628906 159.007812 279.128906 159.652344 C 278.167969 160.96875 277.121094 162.171875 276.0625 163.34375 C 273.941406 165.675781 271.742188 167.84375 269.636719 169.992188 C 269.253906 170.394531 268.867188 170.78125 268.480469 171.183594 C 268.289062 171.390625 268.082031 171.601562 267.886719 171.808594 L 283.304688 216.972656 L 273.332031 195.851562 C 272.046875 195.59375 270.761719 195.273438 269.476562 194.855469 C 269.171875 194.742188 268.851562 194.648438 268.546875 194.535156 C 268.242188 194.40625 267.9375 194.308594 267.613281 194.164062 C 267.324219 194.035156 267.019531 193.910156 266.714844 193.78125 C 266.410156 193.652344 266.105469 193.492188 265.816406 193.347656 C 264.613281 192.75 263.421875 192.078125 262.316406 191.210938 C 261.753906 190.792969 261.238281 190.292969 260.742188 189.78125 C 260.257812 189.234375 259.824219 188.640625 259.472656 187.980469 C 259.136719 187.324219 258.878906 186.601562 258.75 185.847656 C 258.605469 185.089844 258.621094 184.320312 258.71875 183.566406 C 258.796875 182.859375 258.992188 182.136719 259.246094 181.429688 Z M 249.335938 133.152344 C 248.453125 133.503906 248.855469 136.589844 250.253906 140.007812 C 251.652344 143.445312 253.480469 145.933594 254.382812 145.566406 C 255.136719 145.261719 254.941406 142.949219 253.996094 140.121094 C 253.769531 140.28125 253.5625 140.425781 253.351562 140.585938 C 252.855469 140.941406 252.375 141.324219 251.890625 141.695312 C 251.601562 141.132812 251.3125 140.507812 251.023438 139.800781 C 251.554688 139.398438 252.085938 139.011719 252.628906 138.628906 C 252.839844 138.484375 253.0625 138.339844 253.273438 138.179688 C 251.875 135.03125 250.171875 132.8125 249.335938 133.152344 Z M 267.9375 169.59375 C 268.144531 169.382812 268.335938 169.160156 268.546875 168.949219 C 270.632812 166.765625 272.800781 164.582031 274.859375 162.285156 C 275.886719 161.128906 276.882812 159.941406 277.78125 158.703125 C 278.230469 158.078125 278.664062 157.433594 279.050781 156.777344 C 279.433594 156.117188 279.789062 155.441406 280.0625 154.753906 C 280.335938 154.0625 280.542969 153.355469 280.625 152.632812 L 280.65625 152.359375 C 280.65625 152.3125 280.65625 152.296875 280.671875 152.230469 L 280.671875 152.085938 C 280.6875 151.878906 280.6875 151.683594 280.703125 151.476562 C 280.703125 151.105469 280.703125 150.738281 280.671875 150.351562 C 280.65625 149.964844 280.609375 149.582031 280.574219 149.195312 C 280.511719 148.808594 280.464844 148.425781 280.382812 148.054688 C 280.222656 147.300781 280.011719 146.546875 279.722656 145.824219 C 278.632812 142.898438 276.59375 140.332031 273.941406 138.546875 C 271.308594 136.765625 268.082031 135.816406 264.851562 135.898438 C 264.050781 135.914062 263.246094 136.011719 262.441406 136.15625 C 261.640625 136.316406 260.851562 136.523438 260.082031 136.796875 C 259.3125 137.070312 258.539062 137.40625 257.800781 137.777344 C 257.59375 137.871094 257.398438 137.984375 257.191406 138.097656 C 256.964844 138.226562 256.742188 138.355469 256.515625 138.484375 L 267.339844 170.203125 C 267.535156 170.011719 267.742188 169.800781 267.9375 169.59375 Z M 267.9375 169.59375 " fill-opacity="1" fill-rule="nonzero"/></g><g clip-path="url(#9a8ccb7ab9)"><path fill="#e590c4" d="M 51.40625 185.460938 C 51.40625 179.277344 53.046875 172.917969 56.175781 167.152344 C 56.371094 166.78125 56.578125 166.445312 56.789062 166.074219 L 57.09375 165.546875 C 57.1875 165.367188 57.316406 165.191406 57.414062 165.015625 C 57.640625 164.660156 57.847656 164.308594 58.074219 163.972656 C 58.3125 163.632812 58.554688 163.28125 58.796875 162.945312 C 59.035156 162.589844 59.277344 162.285156 59.535156 161.949219 L 59.902344 161.464844 L 60 161.335938 C 60.03125 161.304688 60.082031 161.226562 60.113281 161.210938 L 60.304688 160.96875 C 60.578125 160.648438 60.835938 160.324219 61.109375 160.003906 C 61.363281 159.683594 61.652344 159.378906 61.941406 159.058594 C 64.175781 156.535156 66.730469 154.269531 69.476562 152.214844 C 70.871094 151.203125 72.285156 150.238281 73.78125 149.339844 C 75.273438 148.457031 76.800781 147.605469 78.375 146.851562 L 78.96875 146.5625 L 79.5625 146.289062 C 79.964844 146.113281 80.363281 145.917969 80.75 145.742188 C 81.554688 145.40625 82.355469 145.035156 83.175781 144.730469 C 84.8125 144.074219 86.46875 143.476562 88.152344 142.933594 C 94.898438 140.746094 102 139.382812 109.226562 138.546875 C 110.125 138.453125 111.039062 138.339844 111.941406 138.257812 L 112.613281 138.195312 L 112.953125 138.160156 L 113.304688 138.128906 C 113.753906 138.097656 114.21875 138.066406 114.671875 138.035156 C 115.585938 137.96875 116.5 137.90625 117.417969 137.839844 C 118.332031 137.792969 119.246094 137.792969 120.179688 137.761719 C 122.027344 137.679688 123.871094 137.746094 125.71875 137.777344 L 126.410156 137.792969 L 127.101562 137.839844 L 128.5 137.921875 L 129.894531 138 L 130.585938 138.050781 C 130.8125 138.066406 131.050781 138.097656 131.277344 138.113281 C 132.207031 138.210938 133.125 138.304688 134.054688 138.402344 L 134.746094 138.484375 C 134.96875 138.515625 135.210938 138.546875 135.4375 138.578125 L 136.816406 138.789062 L 138.199219 138.996094 L 138.890625 139.09375 L 139.578125 139.222656 C 140.496094 139.398438 141.410156 139.574219 142.34375 139.753906 C 142.808594 139.832031 143.257812 139.945312 143.722656 140.042969 L 145.089844 140.363281 C 146.003906 140.570312 146.917969 140.765625 147.820312 141.019531 C 148.71875 141.261719 149.632812 141.503906 150.535156 141.742188 C 151.433594 142 152.332031 142.289062 153.230469 142.546875 L 154.582031 142.949219 L 155.914062 143.398438 C 156.796875 143.703125 157.695312 143.992188 158.578125 144.296875 L 161.230469 145.261719 L 162.546875 145.742188 L 163.863281 146.257812 L 166.480469 147.269531 L 169.082031 148.328125 L 170.382812 148.859375 L 171.683594 149.40625 L 174.269531 150.496094 L 176.839844 151.621094 C 177.691406 151.988281 178.558594 152.375 179.394531 152.730469 C 181.082031 153.453125 182.816406 154.078125 184.550781 154.65625 C 188.050781 155.78125 191.617188 156.648438 195.246094 157.160156 C 202.488281 158.253906 209.878906 158.09375 217.007812 156.839844 C 224.121094 155.539062 230.996094 153.128906 237.195312 149.695312 L 238.351562 149.050781 L 239.476562 148.375 L 240.039062 148.039062 C 240.230469 147.925781 240.40625 147.796875 240.601562 147.6875 L 241.726562 146.964844 C 243.171875 146.015625 244.566406 144.941406 245.949219 143.847656 C 246.414062 143.476562 246.863281 143.109375 247.332031 142.738281 L 248.246094 144.667969 C 247.925781 144.941406 247.585938 145.195312 247.25 145.46875 C 245.851562 146.59375 244.421875 147.703125 242.882812 148.730469 L 241.757812 149.46875 C 241.566406 149.597656 241.386719 149.710938 241.195312 149.839844 L 240.601562 150.191406 L 239.414062 150.914062 L 238.207031 151.589844 C 235.011719 153.386719 231.640625 154.898438 228.152344 156.148438 C 227.71875 156.308594 227.285156 156.453125 226.835938 156.597656 C 226.402344 156.746094 225.953125 156.890625 225.519531 157.035156 C 224.621094 157.289062 223.738281 157.578125 222.835938 157.804688 L 221.488281 158.15625 L 220.125 158.480469 L 219.449219 158.640625 L 218.757812 158.769531 L 217.378906 159.039062 C 210.023438 160.359375 202.375 160.535156 194.890625 159.410156 C 191.148438 158.878906 187.441406 157.980469 183.828125 156.824219 C 182.027344 156.230469 180.230469 155.585938 178.480469 154.832031 C 177.59375 154.464844 176.742188 154.09375 175.894531 153.726562 L 173.324219 152.617188 L 169.46875 150.976562 L 168.183594 150.449219 L 165.597656 149.386719 L 162.996094 148.375 L 161.695312 147.878906 L 160.394531 147.398438 L 157.777344 146.449219 C 156.894531 146.160156 156.027344 145.855469 155.144531 145.566406 L 153.824219 145.132812 L 152.507812 144.730469 C 151.625 144.457031 150.742188 144.183594 149.859375 143.929688 C 148.976562 143.6875 148.074219 143.445312 147.191406 143.207031 C 146.308594 142.949219 145.410156 142.753906 144.511719 142.546875 L 143.160156 142.242188 C 142.710938 142.144531 142.261719 142.03125 141.8125 141.953125 C 140.914062 141.777344 140.011719 141.613281 139.113281 141.4375 L 138.441406 141.308594 L 137.765625 141.214844 L 136.414062 141.003906 L 135.066406 140.796875 C 134.84375 140.765625 134.617188 140.730469 134.390625 140.699219 L 133.71875 140.621094 C 132.820312 140.523438 131.902344 140.425781 131.003906 140.332031 C 130.777344 140.3125 130.554688 140.28125 130.328125 140.265625 L 129.65625 140.21875 L 128.289062 140.136719 L 126.925781 140.058594 L 126.25 140.007812 L 125.574219 139.992188 C 123.761719 139.960938 121.960938 139.898438 120.148438 139.960938 C 119.246094 139.976562 118.347656 139.992188 117.449219 140.023438 C 116.550781 140.089844 115.648438 140.136719 114.75 140.203125 C 112.96875 140.296875 111.152344 140.492188 109.386719 140.667969 C 102.269531 141.453125 95.300781 142.753906 88.699219 144.859375 C 87.046875 145.390625 85.421875 145.953125 83.832031 146.578125 C 83.03125 146.882812 82.242188 147.21875 81.457031 147.558594 C 81.070312 147.734375 80.6875 147.910156 80.300781 148.085938 L 79.722656 148.34375 L 79.144531 148.617188 C 76.09375 150.09375 73.203125 151.8125 70.503906 153.742188 C 67.835938 155.699219 65.363281 157.867188 63.195312 160.261719 C 62.921875 160.566406 62.648438 160.855469 62.394531 161.160156 C 62.136719 161.464844 61.878906 161.769531 61.621094 162.09375 L 61.429688 162.316406 C 61.382812 162.367188 61.382812 162.382812 61.347656 162.414062 L 61.253906 162.542969 L 60.882812 163.023438 C 60.640625 163.34375 60.371094 163.667969 60.160156 163.988281 C 59.9375 164.308594 59.710938 164.628906 59.484375 164.949219 C 59.261719 165.273438 59.050781 165.609375 58.84375 165.945312 C 58.730469 166.109375 58.617188 166.285156 58.523438 166.445312 L 58.21875 166.957031 C 58.023438 167.296875 57.816406 167.632812 57.621094 167.988281 C 54.570312 173.496094 52.964844 179.582031 52.886719 185.492188 L 52.867188 186.039062 C 52.867188 186.214844 52.886719 186.40625 52.886719 186.585938 C 52.902344 186.953125 52.902344 187.324219 52.917969 187.691406 C 52.949219 188.0625 52.980469 188.414062 52.996094 188.785156 C 53.011719 188.960938 53.03125 189.15625 53.046875 189.332031 L 53.109375 189.878906 C 53.269531 191.324219 53.574219 192.734375 53.929688 194.101562 C 54.023438 194.4375 54.121094 194.792969 54.21875 195.128906 C 54.265625 195.304688 54.3125 195.464844 54.378906 195.625 L 54.554688 196.125 C 54.765625 196.800781 55.054688 197.441406 55.308594 198.085938 C 55.886719 199.351562 56.5 200.605469 57.238281 201.746094 C 57.945312 202.917969 58.777344 203.996094 59.613281 205.039062 C 59.839844 205.296875 60.0625 205.535156 60.289062 205.792969 C 60.515625 206.035156 60.722656 206.289062 60.964844 206.53125 C 61.445312 206.996094 61.894531 207.480469 62.394531 207.898438 C 62.632812 208.121094 62.890625 208.332031 63.132812 208.554688 L 63.210938 208.636719 L 63.308594 208.714844 L 63.5 208.875 L 63.886719 209.183594 C 64.144531 209.390625 64.398438 209.597656 64.65625 209.808594 C 64.914062 210 65.171875 210.195312 65.429688 210.386719 C 65.683594 210.578125 65.941406 210.773438 66.199219 210.964844 C 66.457031 211.140625 66.730469 211.335938 66.984375 211.511719 C 67.242188 211.6875 67.5 211.878906 67.773438 212.058594 C 68.046875 212.234375 68.304688 212.394531 68.574219 212.570312 C 70.710938 213.9375 72.863281 215.140625 75.03125 216.199219 C 75.578125 216.457031 76.109375 216.730469 76.636719 216.972656 C 77.183594 217.210938 77.714844 217.453125 78.246094 217.695312 C 79.320312 218.144531 80.378906 218.59375 81.441406 218.980469 C 83.5625 219.78125 85.648438 220.472656 87.6875 221.035156 C 87.945312 221.097656 88.203125 221.179688 88.441406 221.242188 C 88.699219 221.308594 88.957031 221.371094 89.199219 221.4375 C 89.695312 221.566406 90.195312 221.691406 90.691406 221.804688 C 91.6875 222.03125 92.667969 222.253906 93.628906 222.414062 C 94.59375 222.609375 95.542969 222.753906 96.472656 222.882812 C 96.699219 222.914062 96.9375 222.945312 97.164062 222.976562 C 97.390625 223.011719 97.628906 223.027344 97.855469 223.058594 C 98.304688 223.105469 98.769531 223.171875 99.203125 223.203125 C 100.101562 223.265625 100.96875 223.363281 101.835938 223.378906 C 102.269531 223.394531 102.6875 223.410156 103.105469 223.425781 C 103.523438 223.425781 103.941406 223.425781 104.34375 223.425781 C 107.601562 223.425781 110.511719 223.105469 112.984375 222.59375 C 115.457031 222.078125 117.511719 221.371094 119.117188 220.714844 C 119.519531 220.535156 119.890625 220.375 120.242188 220.214844 C 120.324219 220.183594 120.417969 220.136719 120.5 220.101562 C 120.582031 220.054688 120.660156 220.023438 120.742188 219.972656 C 120.902344 219.894531 121.046875 219.8125 121.207031 219.734375 C 121.496094 219.574219 121.769531 219.429688 122.027344 219.300781 C 122.152344 219.234375 122.265625 219.171875 122.378906 219.105469 C 122.492188 219.042969 122.585938 218.980469 122.683594 218.914062 C 123.457031 218.433594 123.855469 218.191406 123.855469 218.191406 C 123.855469 218.191406 123.472656 218.449219 122.699219 218.945312 C 122.605469 219.011719 122.507812 219.074219 122.394531 219.140625 C 122.28125 219.21875 122.171875 219.285156 122.058594 219.347656 C 121.816406 219.492188 121.542969 219.636719 121.253906 219.796875 C 121.109375 219.878906 120.949219 219.957031 120.804688 220.054688 C 120.726562 220.101562 120.644531 220.152344 120.5625 220.183594 C 120.484375 220.214844 120.386719 220.261719 120.308594 220.3125 C 119.953125 220.472656 119.585938 220.648438 119.183594 220.84375 C 117.578125 221.546875 115.539062 222.304688 113.046875 222.882812 C 110.558594 223.460938 107.636719 223.84375 104.359375 223.910156 C 103.941406 223.910156 103.539062 223.925781 103.105469 223.925781 C 102.6875 223.910156 102.253906 223.910156 101.820312 223.894531 C 100.953125 223.894531 100.070312 223.8125 99.171875 223.765625 C 98.722656 223.75 98.257812 223.683594 97.804688 223.636719 C 97.582031 223.621094 97.339844 223.589844 97.117188 223.570312 C 96.875 223.554688 96.648438 223.523438 96.410156 223.492188 C 95.460938 223.363281 94.496094 223.25 93.535156 223.074219 C 92.554688 222.929688 91.558594 222.703125 90.5625 222.511719 C 90.066406 222.414062 89.550781 222.269531 89.039062 222.160156 C 88.78125 222.09375 88.523438 222.03125 88.265625 221.980469 C 88.007812 221.917969 87.753906 221.855469 87.496094 221.773438 C 85.421875 221.242188 83.304688 220.570312 81.152344 219.796875 C 80.074219 219.414062 78.984375 218.980469 77.890625 218.546875 C 77.34375 218.304688 76.800781 218.078125 76.253906 217.839844 C 75.707031 217.597656 75.160156 217.339844 74.597656 217.082031 C 72.398438 216.039062 70.183594 214.851562 67.980469 213.503906 C 67.707031 213.324219 67.4375 213.164062 67.164062 212.988281 C 66.890625 212.8125 66.617188 212.636719 66.34375 212.441406 C 66.070312 212.265625 65.796875 212.074219 65.523438 211.894531 C 65.25 211.71875 64.996094 211.511719 64.722656 211.316406 C 64.449219 211.125 64.175781 210.933594 63.917969 210.722656 C 63.660156 210.515625 63.40625 210.320312 63.132812 210.113281 L 62.746094 209.808594 L 62.554688 209.648438 L 62.457031 209.566406 C 62.410156 209.519531 62.394531 209.503906 62.34375 209.472656 C 62.085938 209.246094 61.832031 209.019531 61.574219 208.796875 C 61.042969 208.363281 60.5625 207.863281 60.0625 207.382812 C 59.808594 207.140625 59.582031 206.886719 59.339844 206.628906 C 59.101562 206.371094 58.875 206.113281 58.632812 205.855469 C 57.734375 204.78125 56.851562 203.671875 56.097656 202.453125 C 55.308594 201.246094 54.636719 199.964844 54.023438 198.628906 C 53.734375 197.957031 53.429688 197.28125 53.207031 196.589844 L 53.011719 196.058594 C 52.949219 195.882812 52.886719 195.707031 52.835938 195.53125 C 52.722656 195.175781 52.628906 194.824219 52.515625 194.453125 C 52.128906 193.007812 51.792969 191.546875 51.601562 190.039062 L 51.519531 189.476562 C 51.503906 189.28125 51.488281 189.089844 51.472656 188.914062 C 51.441406 188.527344 51.40625 188.160156 51.375 187.773438 C 51.359375 187.386719 51.34375 187.003906 51.328125 186.617188 C 51.328125 186.425781 51.3125 186.230469 51.3125 186.039062 Z M 51.40625 185.460938 " fill-opacity="1" fill-rule="nonzero"/></g><g fill="#e590c4" fill-opacity="1"><g transform="translate(95.422377, 213.749986)"><g><path d="M 3.578125 0 L 3.578125 -45.625 L 9.078125 -45.625 L 9.078125 -15.1875 L 9.953125 -15.1875 L 24.6875 -27.578125 L 26 -27.578125 L 14.390625 -17.890625 L 29.140625 0 L 21.984375 0 L 10.203125 -14.3125 L 9.078125 -14.3125 L 9.078125 0 Z M 3.578125 0 "/></g></g></g><g fill="#e590c4" fill-opacity="1"><g transform="translate(125.435067, 213.749986)"><g><path d="M 16.84375 0.703125 C 12.414062 0.640625 8.863281 -0.726562 6.1875 -3.40625 C 3.519531 -6.082031 2.1875 -9.570312 2.1875 -13.875 C 2.1875 -16.71875 2.867188 -19.226562 4.234375 -21.40625 C 5.597656 -23.59375 7.398438 -25.3125 9.640625 -26.5625 C 11.878906 -27.8125 14.28125 -28.4375 16.84375 -28.4375 C 19.394531 -28.4375 21.773438 -27.8125 23.984375 -26.5625 C 26.203125 -25.3125 27.992188 -23.59375 29.359375 -21.40625 C 30.722656 -19.226562 31.40625 -16.71875 31.40625 -13.875 C 31.40625 -9.570312 30.082031 -6.082031 27.4375 -3.40625 C 24.789062 -0.726562 21.257812 0.640625 16.84375 0.703125 Z M 16.84375 -0.171875 C 19.394531 -0.171875 21.398438 -1.1875 22.859375 -3.21875 C 24.316406 -5.257812 25.046875 -8.925781 25.046875 -14.21875 C 25.046875 -17.707031 24.695312 -20.410156 24 -22.328125 C 23.300781 -24.253906 22.335938 -25.609375 21.109375 -26.390625 C 19.890625 -27.179688 18.46875 -27.578125 16.84375 -27.578125 C 15.207031 -27.578125 13.765625 -27.179688 12.515625 -26.390625 C 11.265625 -25.609375 10.289062 -24.253906 9.59375 -22.328125 C 8.894531 -20.410156 8.546875 -17.707031 8.546875 -14.21875 C 8.546875 -11.539062 8.765625 -9.15625 9.203125 -7.0625 C 9.640625 -4.96875 10.453125 -3.296875 11.640625 -2.046875 C 12.835938 -0.796875 14.570312 -0.171875 16.84375 -0.171875 Z M 16.84375 -0.171875 "/></g></g></g><g fill="#e590c4" fill-opacity="1"><g transform="translate(159.024847, 213.749986)"><g><path d="M 3.578125 0 L 3.578125 -45.625 L 9.078125 -45.625 L 9.078125 -15.1875 L 9.953125 -15.1875 L 24.6875 -27.578125 L 26 -27.578125 L 14.390625 -17.890625 L 29.140625 0 L 21.984375 0 L 10.203125 -14.3125 L 9.078125 -14.3125 L 9.078125 0 Z M 3.578125 0 "/></g></g></g><g fill="#e590c4" fill-opacity="1"><g transform="translate(189.037537, 213.749986)"><g><path d="M 3.578125 0 L 3.578125 -45.625 L 9.078125 -45.625 L 9.078125 -15.1875 L 9.953125 -15.1875 L 24.6875 -27.578125 L 26 -27.578125 L 14.390625 -17.890625 L 29.140625 0 L 21.984375 0 L 10.203125 -14.3125 L 9.078125 -14.3125 L 9.078125 0 Z M 3.578125 0 "/></g></g></g><g fill="#e590c4" fill-opacity="1"><g transform="translate(219.050227, 213.749986)"><g><path d="M 16.84375 0.703125 C 12.414062 0.640625 8.863281 -0.726562 6.1875 -3.40625 C 3.519531 -6.082031 2.1875 -9.570312 2.1875 -13.875 C 2.1875 -16.71875 2.867188 -19.226562 4.234375 -21.40625 C 5.597656 -23.59375 7.398438 -25.3125 9.640625 -26.5625 C 11.878906 -27.8125 14.28125 -28.4375 16.84375 -28.4375 C 19.394531 -28.4375 21.773438 -27.8125 23.984375 -26.5625 C 26.203125 -25.3125 27.992188 -23.59375 29.359375 -21.40625 C 30.722656 -19.226562 31.40625 -16.71875 31.40625 -13.875 C 31.40625 -9.570312 30.082031 -6.082031 27.4375 -3.40625 C 24.789062 -0.726562 21.257812 0.640625 16.84375 0.703125 Z M 16.84375 -0.171875 C 19.394531 -0.171875 21.398438 -1.1875 22.859375 -3.21875 C 24.316406 -5.257812 25.046875 -8.925781 25.046875 -14.21875 C 25.046875 -17.707031 24.695312 -20.410156 24 -22.328125 C 23.300781 -24.253906 22.335938 -25.609375 21.109375 -26.390625 C 19.890625 -27.179688 18.46875 -27.578125 16.84375 -27.578125 C 15.207031 -27.578125 13.765625 -27.179688 12.515625 -26.390625 C 11.265625 -25.609375 10.289062 -24.253906 9.59375 -22.328125 C 8.894531 -20.410156 8.546875 -17.707031 8.546875 -14.21875 C 8.546875 -11.539062 8.765625 -9.15625 9.203125 -7.0625 C 9.640625 -4.96875 10.453125 -3.296875 11.640625 -2.046875 C 12.835938 -0.796875 14.570312 -0.171875 16.84375 -0.171875 Z M 16.84375 -0.171875 "/></g></g></g></svg>